<svg fill="none" height="35" viewBox="0 0 220 35" width="220" xmlns="http://www.w3.org/2000/svg" xmlns:xlink="http://www.w3.org/1999/xlink"><clipPath id="a"><path d="m0 0h123v35h-123z"/></clipPath><g clip-path="url(#a)"><path d="m17.5001 0c9.6649 0 17.4999 7.83502 17.4999 17.5 0 9.665-7.835 17.5-17.4999 17.5-9.66508 0-17.5001-7.835-17.5001-17.5 0-9.66498 7.83502-17.5 17.5001-17.5z" fill="#f73b95"/><path d="m17.5417 3.41699c7.824 0 14.1666 6.34263 14.1666 14.16671 0 7.824-6.3426 14.1666-14.1666 14.1666-7.82403 0-14.1667-6.3426-14.1667-14.1666 0-7.82408 6.34267-14.16671 14.1667-14.16671z" fill="#bd399c"/><path d="m17.5416 7.16699c5.7529 0 10.4166 4.66361 10.4166 10.41671 0 5.753-4.6637 10.4166-10.4166 10.4166-5.753 0-10.4166-4.6636-10.4166-10.4166 0-5.7531 4.6636-10.41671 10.4166-10.41671z" fill="#93388e"/><path d="m17.4583 10.333c3.9119 0 7.0833 3.1713 7.0833 7.0833 0 3.9119-3.1714 7.0833-7.0833 7.0833s-7.0833-3.1714-7.0833-7.0833c0-3.912 3.1714-7.0833 7.0833-7.0833z" fill="#6030a2"/></g><path d="m54.1094 26h6.7383c3.1054 0 5.4492-.791 7.0019-2.4023 1.582-1.6114 2.3731-3.4864 2.3731-5.6836 0-2.1973-.7911-4.1016-2.3731-5.7129-1.5527-1.6114-3.8965-2.40237-7.0019-2.40237h-6.7383zm13.0371-8.0859c0 1.582-.5274 2.9297-1.582 4.0429-1.0254 1.084-2.6075 1.6407-4.7168 1.6407h-3.75v-11.3965h3.75c2.1093 0 3.6914.5566 4.7168 1.6406 1.0546 1.1133 1.582 2.4609 1.582 4.0723zm5.4785 1.4062c0 4.0723 2.5781 6.9727 7.0605 6.9727 2.9883 0 5.3907-1.4356 6.4454-4.1309h-3.3106c-.7324 1.1426-1.7578 1.7285-3.1348 1.7285-2.2851 0-3.75-1.4648-4.0136-3.75h10.6933v-.8203c0-4.0137-2.6953-6.9726-6.8554-6.9726-4.1895 0-6.8848 2.8711-6.8848 6.9726zm10.6641-1.1133h-7.5879c.3222-2.0215 1.6113-3.457 3.8086-3.457 2.1386 0 3.457 1.4062 3.7793 3.457zm9.9023 2.8418v-6.2109h3.3691v-2.1973h-3.3691v-3.13474h-2.9297v3.13474h-2.1679v2.1973h2.1679v6.2109c0 1.9629.4102 3.2813 1.2598 3.9844s2.0508 1.0547 3.6035 1.0547c.498 0 .9375-.0293 1.3184-.1172l.5566-.1172v-2.3144l-.5566.0586c-.3809.0585-.8204.0878-1.3184.0878-1.582 0-1.9336-.8203-1.9336-2.6367zm12.5686-8.6133c-1.963 0-3.487.4102-4.541 1.2598-1.084.8496-1.6116 1.875-1.6116 3.0762h2.9886c0-1.4063 1.582-1.9336 3.164-1.9336 1.992 0 3.222.7031 3.222 2.5488v.8203h-3.603c-3.545 0-6.2989.9082-6.2989 3.8965 0 2.7539 2.1089 4.1895 5.2439 4.1895 2.022 0 3.457-.4981 4.307-1.4942l.41-.498c0 .5566.234 1.4062.322 1.6992h2.93v-.2344l-.205-.6445c-.117-.4395-.176-1.1133-.176-2.0508v-5.1562c0-3.9258-2.226-5.4786-6.152-5.4786zm3.222 7.7344c0 2.666-1.347 4.043-3.896 4.043-1.67 0-3.018-.5567-3.018-1.9629 0-1.6113 1.465-2.0801 3.311-2.1094zm25.782-4.6582h3.017c-.937-3.7207-3.867-6.15232-7.969-6.15232-5.097 0-8.613 3.60352-8.613 8.55472 0 4.8925 3.487 8.5254 8.613 8.5254 4.014 0 7.002-2.3731 7.969-6.1524h-3.017c-.703 2.1387-2.52 3.6914-4.952 3.6914-3.222 0-5.478-2.5195-5.478-6.0644 0-3.5157 2.197-6.0938 5.478-6.0938 2.374 0 4.219 1.4942 4.952 3.6914zm8.935-7.82225h-2.929v18.31055h2.929zm3.281 11.63085c0 2.0215.645 3.6914 1.905 5.0098 1.26 1.3183 3.017 1.9629 5.215 1.9629h.029c2.197 0 3.926-.6446 5.185-1.9629 1.26-1.3184 1.905-2.9883 1.905-5.0098s-.645-3.6914-1.905-5.0098c-1.259-1.3183-3.017-1.9628-5.214-1.9628-2.198 0-3.955.6445-5.215 1.9628-1.26 1.3184-1.905 2.9883-1.905 5.0098zm11.25 0c0 2.5488-1.464 4.5703-4.13 4.5703-2.549 0-4.131-1.9336-4.131-4.5703 0-2.6074 1.611-4.5703 4.131-4.5703 2.548 0 4.13 1.9629 4.13 4.5703zm11.661 6.9141c1.992 0 3.75-.791 4.599-2.1973l.117 1.9629h2.696v-13.3594h-2.901v7.7344c0 1.2305-.41 2.1094-1.23 2.666-.82.5274-1.67.791-2.52.791-.879 0-1.64-.2636-2.314-.791-.674-.5566-.996-1.4355-.996-2.666v-7.7344h-2.93v7.7344c0 3.7793 1.875 5.8594 5.479 5.8594zm17.021-13.8867c-3.984 0-6.299 2.9882-6.299 6.9726 0 3.9258 2.256 6.9727 6.299 6.9727 2.08 0 3.545-.6446 4.395-1.9629l.205-.3223.117 1.9922h2.695v-18.31055h-2.9v6.79685l-.117-.1758c-.85-1.3183-2.315-1.9628-4.395-1.9628zm.527 2.3144c2.549 0 3.985 2.0801 3.985 4.6582 0 2.4902-1.377 4.6582-3.985 4.6582-2.548 0-3.896-1.9922-3.896-4.6582 0-2.4902 1.318-4.6582 3.896-4.6582z" fill="#000"/></svg>