<svg xmlns="http://www.w3.org/2000/svg" width="666.667" height="666.667" preserveAspectRatio="xMidYMid meet" version="1.0" viewBox="0 0 500 500"><metadata>Created by potrace 1.14, written by Peter Selinger 2001-2017</metadata><g fill="#000" stroke="none"><path d="M3070 3005 l0 -295 -50 36 c-145 104 -366 102 -529 -7 -226 -151 -299 -506 -158 -774 138 -261 497 -349 694 -171 22 20 43 36 46 36 3 0 7 -21 9 -47 l3 -48 133 -3 132 -3 0 786 0 785 -140 0 -140 0 0 -295z m-155 -459 c92 -39 145 -126 153 -252 12 -197 -88 -324 -257 -324 -81 0 -136 25 -190 87 -89 101 -100 278 -23 391 34 52 97 99 148 111 46 12 124 5 169 -13z" transform="translate(0.000000,500.000000) scale(0.100000,-0.100000)"/><path d="M3998 2819 c-78 -11 -152 -51 -215 -116 l-53 -54 0 71 0 70 -135 0 -135 0 0 -530 0 -531 143 3 142 3 5 320 c5 310 6 322 29 372 45 102 128 150 227 134 69 -10 113 -38 138 -86 20 -38 21 -59 26 -390 l5 -350 143 -3 143 -3 -3 398 c-5 438 -7 460 -70 551 -75 109 -230 165 -390 141z" transform="translate(0.000000,500.000000) scale(0.100000,-0.100000)"/><path d="M540 2789 c0 -9 116 -371 306 -951 l36 -108 152 0 152 0 103 343 c57 188 107 346 111 350 5 6 160 -477 212 -660 l9 -33 154 0 154 0 45 143 c25 78 97 309 161 512 63 204 118 378 121 388 5 16 -6 17 -145 17 l-150 0 -14 -47 c-8 -27 -49 -180 -92 -340 -44 -161 -81 -291 -83 -289 -2 2 -52 156 -111 343 l-107 338 -145 3 -145 3 -103 -328 c-57 -181 -107 -334 -111 -341 -5 -10 -144 427 -202 636 l-9 32 -149 0 c-104 0 -150 -3 -150 -11z" transform="translate(0.000000,500.000000) scale(0.100000,-0.100000)"/></g></svg>