<?xml version="1.0" standalone="no"?>
<!DOCTYPE svg PUBLIC "-//W3C//DTD SVG 20010904//EN"
 "http://www.w3.org/TR/2001/REC-SVG-20010904/DTD/svg10.dtd">
<svg version="1.0" xmlns="http://www.w3.org/2000/svg"
 width="1000.000000pt" height="1000.000000pt" viewBox="0 0 1000.000000 1000.000000"
 preserveAspectRatio="xMidYMid meet">
<metadata>
Created by potrace 1.14, written by Peter Selinger 2001-2017
</metadata>
<g transform="translate(0.000000,1000.000000) scale(0.100000,-0.100000)"
fill="#000000" stroke="none">
<path d="M1795 7708 c-126 -24 -280 -139 -337 -253 -57 -112 -74 -258 -44
-370 34 -128 9 -101 1029 -1122 l962 -963 -962 -962 c-1020 -1022 -995 -995
-1029 -1123 -8 -27 -14 -86 -14 -131 0 -142 46 -252 149 -355 157 -157 374
-191 576 -90 79 39 96 56 1242 1203 1125 1126 1163 1165 1197 1236 68 144 70
290 4 437 -31 68 -62 100 -1197 1238 -1152 1154 -1167 1169 -1246 1208 -115
57 -209 70 -330 47z"/>
<path d="M5326 3274 c-221 -53 -386 -262 -386 -489 0 -229 165 -436 391 -490
55 -13 249 -15 1444 -15 1506 0 1431 -3 1553 56 113 55 218 183 257 311 19 61
19 214 1 274 -53 174 -188 305 -362 349 -75 19 -113 20 -1458 19 -1157 -1
-1391 -3 -1440 -15z"/>
</g>
</svg>
